<svg width="28" height="21" viewBox="0 0 28 21" fill="none" xmlns="http://www.w3.org/2000/svg">
<rect y="0.5" width="28" height="20" rx="2" fill="#F0F0F1"/>
<mask id="mask0_66_2082" style="mask-type:alpha" maskUnits="userSpaceOnUse" x="0" y="0" width="28" height="21">
<rect y="0.5" width="28" height="20" rx="2" fill="white"/>
</mask>
<g mask="url(#mask0_66_2082)">
<path fill-rule="evenodd" clip-rule="evenodd" d="M28 0.5H0V1.83333H28V0.5ZM28 3.16667H0V4.5H28V3.16667ZM0 5.83333H28V7.16667H0V5.83333ZM28 8.5H0V9.83333H28V8.5ZM0 11.1667H28V12.5H0V11.1667ZM28 13.8333H0V15.1667H28V13.8333ZM0 16.5H28V17.8333H0V16.5ZM28 19.1667H0V20.5H28V19.1667Z" fill="#D02F44"/>
<rect y="0.5" width="12" height="9.33333" fill="#46467F"/>
<g filter="url(#filter0_d_66_2082)">
<path fill-rule="evenodd" clip-rule="evenodd" d="M2.66683 2.49967C2.66683 2.86786 2.36835 3.16634 2.00016 3.16634C1.63197 3.16634 1.3335 2.86786 1.3335 2.49967C1.3335 2.13148 1.63197 1.83301 2.00016 1.83301C2.36835 1.83301 2.66683 2.13148 2.66683 2.49967ZM5.3335 2.49967C5.3335 2.86786 5.03502 3.16634 4.66683 3.16634C4.29864 3.16634 4.00016 2.86786 4.00016 2.49967C4.00016 2.13148 4.29864 1.83301 4.66683 1.83301C5.03502 1.83301 5.3335 2.13148 5.3335 2.49967ZM7.3335 3.16634C7.70169 3.16634 8.00016 2.86786 8.00016 2.49967C8.00016 2.13148 7.70169 1.83301 7.3335 1.83301C6.96531 1.83301 6.66683 2.13148 6.66683 2.49967C6.66683 2.86786 6.96531 3.16634 7.3335 3.16634ZM10.6668 2.49967C10.6668 2.86786 10.3684 3.16634 10.0002 3.16634C9.63197 3.16634 9.3335 2.86786 9.3335 2.49967C9.3335 2.13148 9.63197 1.83301 10.0002 1.83301C10.3684 1.83301 10.6668 2.13148 10.6668 2.49967ZM3.3335 4.49967C3.70169 4.49967 4.00016 4.2012 4.00016 3.83301C4.00016 3.46482 3.70169 3.16634 3.3335 3.16634C2.96531 3.16634 2.66683 3.46482 2.66683 3.83301C2.66683 4.2012 2.96531 4.49967 3.3335 4.49967ZM6.66683 3.83301C6.66683 4.2012 6.36835 4.49967 6.00016 4.49967C5.63197 4.49967 5.3335 4.2012 5.3335 3.83301C5.3335 3.46482 5.63197 3.16634 6.00016 3.16634C6.36835 3.16634 6.66683 3.46482 6.66683 3.83301ZM8.66683 4.49967C9.03502 4.49967 9.3335 4.2012 9.3335 3.83301C9.3335 3.46482 9.03502 3.16634 8.66683 3.16634C8.29864 3.16634 8.00016 3.46482 8.00016 3.83301C8.00016 4.2012 8.29864 4.49967 8.66683 4.49967ZM10.6668 5.16634C10.6668 5.53453 10.3684 5.83301 10.0002 5.83301C9.63197 5.83301 9.3335 5.53453 9.3335 5.16634C9.3335 4.79815 9.63197 4.49967 10.0002 4.49967C10.3684 4.49967 10.6668 4.79815 10.6668 5.16634ZM7.3335 5.83301C7.70169 5.83301 8.00016 5.53453 8.00016 5.16634C8.00016 4.79815 7.70169 4.49967 7.3335 4.49967C6.96531 4.49967 6.66683 4.79815 6.66683 5.16634C6.66683 5.53453 6.96531 5.83301 7.3335 5.83301ZM5.3335 5.16634C5.3335 5.53453 5.03502 5.83301 4.66683 5.83301C4.29864 5.83301 4.00016 5.53453 4.00016 5.16634C4.00016 4.79815 4.29864 4.49967 4.66683 4.49967C5.03502 4.49967 5.3335 4.79815 5.3335 5.16634ZM2.00016 5.83301C2.36835 5.83301 2.66683 5.53453 2.66683 5.16634C2.66683 4.79815 2.36835 4.49967 2.00016 4.49967C1.63197 4.49967 1.3335 4.79815 1.3335 5.16634C1.3335 5.53453 1.63197 5.83301 2.00016 5.83301ZM4.00016 6.49967C4.00016 6.86786 3.70169 7.16634 3.3335 7.16634C2.96531 7.16634 2.66683 6.86786 2.66683 6.49967C2.66683 6.13148 2.96531 5.83301 3.3335 5.83301C3.70169 5.83301 4.00016 6.13148 4.00016 6.49967ZM6.00016 7.16634C6.36835 7.16634 6.66683 6.86786 6.66683 6.49967C6.66683 6.13148 6.36835 5.83301 6.00016 5.83301C5.63197 5.83301 5.3335 6.13148 5.3335 6.49967C5.3335 6.86786 5.63197 7.16634 6.00016 7.16634ZM9.3335 6.49967C9.3335 6.86786 9.03502 7.16634 8.66683 7.16634C8.29864 7.16634 8.00016 6.86786 8.00016 6.49967C8.00016 6.13148 8.29864 5.83301 8.66683 5.83301C9.03502 5.83301 9.3335 6.13148 9.3335 6.49967ZM10.0002 8.49967C10.3684 8.49967 10.6668 8.2012 10.6668 7.83301C10.6668 7.46482 10.3684 7.16634 10.0002 7.16634C9.63197 7.16634 9.3335 7.46482 9.3335 7.83301C9.3335 8.2012 9.63197 8.49967 10.0002 8.49967ZM8.00016 7.83301C8.00016 8.2012 7.70169 8.49967 7.3335 8.49967C6.96531 8.49967 6.66683 8.2012 6.66683 7.83301C6.66683 7.46482 6.96531 7.16634 7.3335 7.16634C7.70169 7.16634 8.00016 7.46482 8.00016 7.83301ZM4.66683 8.49967C5.03502 8.49967 5.3335 8.2012 5.3335 7.83301C5.3335 7.46482 5.03502 7.16634 4.66683 7.16634C4.29864 7.16634 4.00016 7.46482 4.00016 7.83301C4.00016 8.2012 4.29864 8.49967 4.66683 8.49967ZM2.66683 7.83301C2.66683 8.2012 2.36835 8.49967 2.00016 8.49967C1.63197 8.49967 1.3335 8.2012 1.3335 7.83301C1.3335 7.46482 1.63197 7.16634 2.00016 7.16634C2.36835 7.16634 2.66683 7.46482 2.66683 7.83301Z" fill="url(#paint0_linear_66_2082)"/>
</g>
</g>
<defs>
<filter id="filter0_d_66_2082" x="1.3335" y="1.83301" width="9.3335" height="7.66699" filterUnits="userSpaceOnUse" color-interpolation-filters="sRGB">
<feFlood flood-opacity="0" result="BackgroundImageFix"/>
<feColorMatrix in="SourceAlpha" type="matrix" values="0 0 0 0 0 0 0 0 0 0 0 0 0 0 0 0 0 0 127 0" result="hardAlpha"/>
<feOffset dy="1"/>
<feColorMatrix type="matrix" values="0 0 0 0 0 0 0 0 0 0 0 0 0 0 0 0 0 0 0.06 0"/>
<feBlend mode="normal" in2="BackgroundImageFix" result="effect1_dropShadow_66_2082"/>
<feBlend mode="normal" in="SourceGraphic" in2="effect1_dropShadow_66_2082" result="shape"/>
</filter>
<linearGradient id="paint0_linear_66_2082" x1="1.3335" y1="1.83301" x2="1.3335" y2="8.49967" gradientUnits="userSpaceOnUse">
<stop stop-color="white"/>
<stop offset="1" stop-color="#F0F0F0"/>
</linearGradient>
</defs>
</svg>
